# 3ds Max Wavefront OBJ Exporter v0.99 - (c)2007 guruware
# File Created: 05.12.2023 00:35:42

mtllib cube new.mtl

#
# object Box001
#

v  -0.5045 0.0000 0.5045
v  -0.5045 0.0000 -0.5045
v  0.5045 0.0000 -0.5045
v  0.5045 0.0000 0.5045
v  -0.5045 1.0090 0.5045
v  0.5045 1.0090 0.5045
v  0.5045 1.0090 -0.5045
v  -0.5045 1.0090 -0.5045
# 8 vertices

vn -0.5774 -0.5774 0.5774
vn -0.5774 -0.5774 -0.5774
vn 0.5774 -0.5774 -0.5774
vn 0.5774 -0.5774 0.5774
vn -0.5774 0.5774 0.5774
vn 0.5774 0.5774 0.5774
vn 0.5774 0.5774 -0.5774
vn -0.5774 0.5774 -0.5774
# 8 vertex normals

vt 0.6816 0.6761 0.0000
vt 0.9530 0.6761 0.0000
vt 0.9530 0.9475 0.0000
vt 0.6816 0.9475 0.0000
vt 0.6382 0.4049 0.0000
vt 0.6382 0.6763 0.0000
vt 0.3667 0.6763 0.0000
vt 0.3667 0.4049 0.0000
vt 0.6479 0.0534 0.0000
vt 0.9406 0.0534 0.0000
vt 0.9406 0.3460 0.0000
vt 0.6479 0.3460 0.0000
vt 0.0443 0.6750 0.0000
vt 0.3158 0.6750 0.0000
vt 0.3158 0.9465 0.0000
vt 0.0443 0.9465 0.0000
vt 0.0627 0.0534 0.0000
vt 0.3553 0.0534 0.0000
vt 0.3553 0.3460 0.0000
vt 0.0627 0.3460 0.0000
# 20 texture coords

o Box001
g Box001
usemtl wire_135059008
s 2
f 1/1/1 2/2/2 3/3/3 4/4/4 
s 4
f 5/5/5 6/6/6 7/7/7 8/8/8 
s 8
f 1/9/1 4/10/4 6/11/6 5/12/5 
s 16
f 4/13/4 3/14/3 7/15/7 6/16/6 
s 32
f 3/17/3 2/18/2 8/19/8 7/20/7 
s 64
f 2/18/2 1/9/1 5/12/5 8/19/8 
# 6 polygons

